<svg xmlns="http://www.w3.org/2000/svg" viewBox="0 0 524.52 199.99"><defs><style>.cls-1{fill:#231f20;}.cls-2{fill:#be1e2d;}</style></defs><g id="Layer_2" data-name="Layer 2"><g id="Layer_1-2" data-name="Layer 1"><path class="cls-1" d="M111.14,73.36c-18.47,0-36.95,0-55.42,0-3.1,0-5.2.27-4.81,4.17.25,2.42-.89,4.49-3.57,4.39s-3.71-2.18-3.44-4.58c.41-3.65-1.52-4.09-4.47-4-4.49.15-9,0-13.48,0-2,0-4.18.17-5-2.24-.9-2.57.83-3.93,2.63-5.31Q54,42.44,84.4,19.08c7.51-5.76,15.11-11.39,22.53-17.27,3-2.34,5.36-2.46,8.41-.07,9.13,7.19,18.45,14.15,27.69,21.19,1.18.9,2.31,2.47,3.8,2.06,1.87-.52,1.14-2.53,1.16-3.91,0-3.71,2.09-4.89,5.44-4.85,5.33.06,10.66.12,16,0,4-.1,5.77,1.46,5.67,5.59-.16,7,.14,14-.08,20.94a8.08,8.08,0,0,0,3.64,7.54c6.84,5,13.46,10.29,20.19,15.44,1.78,1.37,3.48,2.73,2.5,5.33-.9,2.41-3,2.25-5,2.26-4.16,0-8.35.37-12.47-.07-4.64-.5-5.47,1.39-5.42,5.58.22,16-.08,31.92.12,47.88.06,4.72-1.41,6.48-6.28,6.42-15.8-.19-31.61.11-47.42,0-3.72,0-4.93,1.08-4.93,4.77,0,6.4-.69,6.78-7.36,6.95-2,.05-4.55-1-5.71,1.69-1.26,2.93,1.34,4.1,2.88,5.68,4.51,4.62,4.56,5.39-.06,10.08-3.38,3.43-7,6.68-10.23,10.2-2.85,3-5.24,2.6-8.07-.05-1.8-1.69-3.13-5.14-6.18-4-3.42,1.25-2.07,4.88-2.14,7.52C82.91,180,81.35,182,77,181.74c-5.48-.27-11-.07-16.47-.07-2.4,0-4.5-.71-4.48-3.49s2-3.56,4.43-3.55c3.83,0,7.66-.16,11.48,0,2.7.1,3.84-.73,3.95-3.62.25-6.43,4.31-10.3,10.77-10.84,3-.25,4.46,2,6.11,3.75,1.9,2,3.44,2.24,5.24,0a18.34,18.34,0,0,1,2.83-2.81c3.12-2.44,3.75-4.76.23-7.49-2.54-2-3.88-4.24-1.87-7.71,2.14-3.69,2.26-9.2,8.73-8.09,4.19.72,5.41-1.41,4.86-5.1-.48-3.25,2.14-8.57-4.77-7.76-4.91.58-6.55-2.44-8.16-6.23s-2.63-7.15,1.4-10c3.11-2.2,2.83-4.39,0-6.66a22.55,22.55,0,0,1-3.2-3.13c-1.8-2.14-3.31-2-5.28-.05-2.22,2.24-4.11,5.24-8.4,3s-9.82-3-8.6-10c.48-2.77-1.08-4-3.82-3.69-3.69.41-8-1.63-10.46,3.34-.8,1.63-3,1.53-4.36.2-2.24-2.14-1.32-5-1.17-7.57s2.39-3,4.43-3.08c6-.12,12-.09,18-.05,3,0,4.57,1.63,4.59,4.66,0,1.33,0,2.66.08,4,.07,1.62-.25,3.43,1.7,4.31,2.21,1,3.33-.7,4.64-1.93,6.1-5.71,6.1-5.7,12.25.24,2,2,4.13,3.86,6.1,5.87a4.86,4.86,0,0,0,5.06,1.21c2.28-.61,1.51-2.67,1.56-4.2.11-3.49.1-7,.08-10.47s1.43-5.09,5.12-5q18.72.24,37.44.11c3.52,0,4.76,1.74,4.81,4.86.05,3.83.17,7.65,0,11.47-.15,4.54,3.14,3.17,5.54,3.47,3,.37,4.19-.67,4.09-3.83-.2-6.14-.22-12.3,0-18.44.14-3.49-1.39-4.09-4.43-4.07-18.64.1-37.28,0-55.91,0ZM56.7,65.8H165.61c-18.18-13.85-35.31-26.88-52.4-40a2.75,2.75,0,0,0-3.92,0C92.15,38.92,75,51.93,56.7,65.8Zm130.39,0c-1.5-1.32-2.41-2.21-3.42-3C161,45.5,138.28,28.25,115.73,10.76c-3.43-2.66-5.68-2.51-9,.05-21.4,16.54-43,32.85-64.43,49.31-2.14,1.64-4.75,2.86-6.48,6,4.89.31,8.79.47,12.84-2.7C67.34,48.75,86.31,34.5,105.18,20.11c6-4.56,6.06-4.58,11.94-.1,18.47,14.09,37,28.06,55.31,42.39C176.74,65.78,181,67.09,187.09,65.82ZM138,99.73v0c4.16,0,8.32-.13,12.47.05,3.12.13,4.78-.8,4.38-4.2a15,15,0,0,1,0-3.48c.52-4-.9-5.68-5.21-5.48-6.8.32-13.63.08-20.45.08-8,0-8,0-7.88,8.22,0,.33,0,.67,0,1-.31,2.77.92,3.93,3.71,3.86C129.33,99.65,133.66,99.73,138,99.73Zm33.54,16.44a35.81,35.81,0,0,1,0-5c.58-4.11-1.29-5-5.09-4.92-3.6,0-5.15.93-4.85,4.78s.07,8,.07,11.93c0,1.58.28,2.88,2.16,3.4,5.36,1.49,7.65-.18,7.67-5.74C171.52,119.16,171.51,117.67,171.52,116.17Zm-3.37-83.69c-.57-2.85.84-5.95-.91-8.69-.51-.79-10.66-1.05-11.19-.23a8.84,8.84,0,0,0-.39,8.56c.78,1.76,3,3,4.75,4.2,2.27,1.53,4.46,5.24,6.76,4.09S167.67,35.25,168.15,32.48ZM148.3,116.27c0,2.32.07,4.64,0,7s.89,3.25,3.25,3.22,3.29-1,3.27-3.31c0-4.47-.1-9,0-13.42.08-2.74-1.24-3.3-3.65-3.33-2.61,0-3,1.3-2.92,3.42S148.31,114.12,148.3,116.27Zm-6.86-.16c0-2.14-.11-4.29,0-6.43.18-2.74-1.25-3.34-3.63-3.32s-3.16,1-3.09,3.31c.13,4.45.1,8.9,0,13.35-.05,2.2.64,3.45,3,3.45s3.78-.78,3.66-3.44C141.36,120.73,141.44,118.42,141.44,116.11Zm-13.63.44c0-2.32-.1-4.64,0-7s-.75-3.3-3.14-3.21c-2.12.08-3.48.5-3.42,3,.11,4.46.07,8.93,0,13.4,0,2.48,1,3.62,3.55,3.64s3.07-1.36,3-3.48S127.82,118.7,127.81,116.55Zm-13.19-4.36c-.51-1.62,1-4.07-1-4.88-1.71-.69-2.42,1.84-3.7,2.78-.53.39-.93,1-1.43,1.38-1.64,1.42-2.8,3.1-1.34,5.15s3.64,1.63,5.49,1.11C115.56,116.9,114.23,114.19,114.62,112.19Z"/><path class="cls-1" d="M65.69,102.64c3.68.17,5.92.27,8.14,1.33,9.74,4.67,10.42,8,3,15.39-1.64,1.64-3.28,3.3-4.9,5s-1.16,3.15.41,4.65,2.93,1.1,4.28-.23c2.82-2.81,5.67-5.6,8.45-8.45,2.33-2.37,4.46-2.22,6.88,0,7.84,7.14,8.45,17.46,1.26,25.15-3.06,3.28-6.2,6.49-9.49,9.53-7.19,6.64-16.63,6.63-23.8,0-4-3.73-7.89-7.6-11.69-11.55-1.78-1.84-3.06-1.88-4.9,0-10.87,11-21.93,21.79-32.75,32.83-4.37,4.47-4.2,9.74-.14,13.71,3.8,3.72,9.7,3.79,13.91-.21,8.43-8,16.69-16.23,25-24.35,1.07-1.05,2.14-2.1,3.28-3.07,1.58-1.36,3.27-1.69,4.85,0,1.39,1.46,1,3.07.1,4.59a8.4,8.4,0,0,1-1.37,1.43c-9.06,9-18,18.1-27.23,27a17.17,17.17,0,0,1-19,3.15c-5.9-2.76-10.31-10-9.94-16.53.26-4.38,2.6-7.81,5.54-10.79,7.12-7.22,14.37-14.31,21.5-21.51,1.09-1.11,3.24-2,2.54-3.86-.62-1.61-2.72-.9-4.07-.76-5.17.5-6.84-1.87-6.54-6.76a124.56,124.56,0,0,0,0-14.46c-.26-4.47,1.74-6,5.91-5.71,1.16.09,2.33-.06,3.49,0A3.58,3.58,0,0,0,32,115.93c1-1.84-.45-2.78-1.33-3.86a41.21,41.21,0,0,0-3.14-3.2c-2.14-2.13-2.33-4.31-.14-6.51q6.51-6.52,13-13c.23-.23.53-.4.78-.61,2.82-2.27,4.89-.31,6.3,1.63,2.45,3.38,8.34,4.72,6.88,10.41-.48,1.89-2.51,2.69-4.48,1.32a17.85,17.85,0,0,1-3.39-2.91c-2.06-2.4-4-2.77-6-.06a10,10,0,0,1-2.11,2.11c-3.64,2.62-4,5.14-.19,8,2.6,1.94,3.2,4.59,1.59,7.51-1.86,3.39-1.87,8.49-7.89,8.06-1.9-.14-5-1.31-5.55,1.61a22.52,22.52,0,0,0,.25,10.35c.32,1.1,1.64.89,2.61,1,2,.13,4,.1,5.95.42,3.63.59,6.68-1.82,5.93-5.32-1.46-6.92.93-12.35,5.74-17.08,3-2.92,5.81-6,8.85-8.77S62.61,102.39,65.69,102.64Zm25.36,30.9c0-2.23-.1-4.74-2.23-5.72s-2.93,1.61-4.21,2.7a47.61,47.61,0,0,0-5.68,5.59c-3.16,3.75-5.84,3.82-9.4.18-11.08-11.33-10.45-8.41-.21-19.23,1.4-1.48,4.78-2.61,3.22-5.29-1.47-2.52-4.68-2.08-7.35-1.84-2.28.2-4,1.59-5.53,3.1-3,2.89-6,5.75-8.84,8.78-4.26,4.55-4.31,9.74,0,14.2,4.48,4.68,9.18,9.15,13.74,13.76a10.11,10.11,0,0,0,7.19,3C78,152.91,91.05,139.89,91.05,133.54Z"/><path class="cls-1" d="M111,196.74c-19.79,0-39.57,0-59.36-.06-2.92,0-7.44.94-7.46-3.51s4.45-3.46,7.42-3.47c21.45-.1,42.9-.21,64.35,0,4,0,5.15-1.28,5.07-5.11-.2-9.63,0-19.27-.09-28.9,0-4.16,1.5-6,5.87-6,9.47.19,19,0,28.43.06,5.79,0,6.44.65,6.5,6.69.08,9.47.2,18.94,0,28.4-.07,3.73,1.3,4.75,4.93,4.83,3.87.08,4.79-1.35,4.75-4.89-.14-12.46,0-24.92,0-37.38,0-.83,0-1.66,0-2.49-.08-2.51.33-5,3.36-5.11s3.6,2.34,3.6,4.87c0,3.82.05,7.64.05,11.46,0,11,0,21.93,0,32.89,0,7.23-.54,7.73-7.58,7.73H111Zm17-23.86c0,4.32.08,8.65,0,13-.07,2.71.92,3.93,3.76,3.88,6.49-.11,13,0,19.47,0,1.17,0,2.68.19,3.09-1.06a21.13,21.13,0,0,0,.21-10.82c-.54-2.49-3.43-1.17-5.27-1.31-2.2-.17-4.16-.58-4.23-3.17-.07-2.79,2-3.56,4.34-3.7a9.39,9.39,0,0,1,1.5,0c2.95.27,4.35-.91,4-4a37.12,37.12,0,0,1,0-5.48c.12-2.25-.71-3.44-3.1-3.43-6.83,0-13.65.07-20.47,0-2.69,0-3.39,1.29-3.31,3.72C128.06,164.57,128,168.72,128,172.88Z"/><path class="cls-1" d="M314.54,176.73c-3.73-8.62-7.45-17.23-11.5-26.58-3.2,7.12-6.08,13.69-9.13,20.17-1,2.1-1.16,5.79-3.56,5.74-2.64-.06-2.55-3.86-3.51-6-4.59-10.28-8.93-20.68-13.32-31.05-1-2.34-1.76-4.65-5.14-4.29-1.72.19-2.69-.89-2.51-2.85s1.22-2.59,2.95-2.6c3.49,0,7,0,10.47,0,1.48,0,2.67.35,3,2s.17,3.22-1.76,3.48c-2.78.38-2.11,1.79-1.41,3.46q4.77,11.2,9.46,22.43c.4.94.73,2,1.93,1.94,1.4,0,1.08-1.39,1.44-2.21,2.15-4.84,4.33-9.67,6.42-14.54,2.21-5.17-.11-9.81-5.52-11-1.46-.32-2.49-.73-2.48-2.46s.53-3,2.47-3c3.82-.06,7.65-.05,11.47-.06a2.25,2.25,0,0,1,2.49,1.93c.28,1.39.3,2.73-1.27,3.36-1.33.52-2.55,1.05-1.82,2.79,3.62,8.64,7.26,17.26,11.44,27.17,4.22-9.86,7.87-18.34,11.47-26.84.73-1.72.12-2.72-1.8-3.2-1.77-.44-1.33-2-1.18-3.32.17-1.49,1.31-1.84,2.53-1.85,3.66-.05,7.31,0,11,0A2.5,2.5,0,0,1,340,131.9c.13,1.89-.73,3-2.53,2.84-3.49-.39-4.44,1.81-5.55,4.44-5.24,12.49-10.65,24.9-16,37.34Z"/><path class="cls-1" d="M417.13,38.65C413,44,408.8,49.27,404.61,54.55c-5,6.24-3.7,7-9.35-.18-4.28-5.43-8.45-10.94-13.9-16.14,0,7.67-.05,15.33,0,23,0,1.89,1.79,1.56,3,1.86,1.66.41,1.84,1.73,1.81,3.11,0,1.7-1.11,2.28-2.63,2.29-3.66,0-7.32,0-11,0-1.74,0-3-.58-3-2.51,0-1.59.55-3.13,2.54-3,3.7.29,3.37-2.13,3.36-4.54,0-8.8-.07-17.6,0-26.4,0-2.51.12-4.68-3.44-4.44-1.91.13-2.51-1.4-2.52-3,0-2,1.38-2.4,3-2.54,3-.25,5.31.37,7.3,3.07,5.7,7.74,11.82,15.17,17.57,22.87,2,2.72,3.21,2.49,5.13-.07,5.76-7.7,11.83-15.17,17.53-22.91,2-2.72,4.39-3.13,7.35-3,1.79.09,2.89.66,2.83,2.6-.05,1.6-.39,3.15-2.45,3-3.3-.26-3.26,1.8-3.25,4.14q.09,13.69,0,27.4c0,2.17,0,4.06,3,3.85,2.36-.17,2.7,1.5,2.62,3.3-.1,2-1.6,2.21-3.21,2.2-3.32,0-6.64,0-10,0-1.6,0-3.13-.06-3.1-2.19,0-1.44-.19-3.2,2-3.34,1.53-.1,2.63-.66,2.64-2.32,0-7.23,0-14.46,0-21.69Z"/><path class="cls-1" d="M271.11,45.59c0-4,0-8,0-12,0-2.78,1.12-6.21-3.81-6.31-1.47,0-1.56-2-1.39-3.32s1.34-1.86,2.56-1.87c3.82-.06,7.65-.1,11.47,0a2.28,2.28,0,0,1,2.5,2.49,3,3,0,0,1-2,3.07c-3.13,1.3-4.54,6.83-3.33,12.13.87,3.78,3.92,2.31,6.11,2.4,5,.19,10,0,15,.07,2.7,0,4-.92,3.82-3.78-.15-2.15-.07-4.32,0-6.48s.22-4.42-3.09-4.38c-2.1,0-2.22-1.68-2.23-3.2,0-2,1.36-2.39,3-2.37q5.24,0,10.48,0c1.77,0,2.89.6,2.81,2.58-.06,1.6-.26,3.14-2.38,3-3.13-.19-2.86,1.9-2.85,3.95q0,13.7,0,27.41c0,2.07-.22,4.12,2.87,4,2.53-.1,2.35,1.83,2.34,3.48,0,1.83-1.33,2-2.78,2-3.66,0-7.32,0-11,0-1.6,0-2.53-.69-2.5-2.36,0-1.36.15-3.08,1.8-3.06,4,0,3.47-2.59,3.49-5.09.08-10,.09-10-10-10h-5c-9.83,0-12.17,3.06-9.9,12.72.46,2,1.7,2.1,3.25,2.28,2,.25,2.2,1.84,2.08,3.38s-1.33,2.12-2.83,2.11c-3.5,0-7,0-10.48,0-1.57,0-3.1-.19-3.16-2.28-.05-1.63.34-3.2,2.29-3.18,3,0,3-1.89,2.95-4C271.08,54.57,271.11,50.08,271.11,45.59Z"/><path class="cls-1" d="M368.39,149.81h1.49c11.43,0,11.39,0,10.54-11.46-.15-2.06-.51-3.57-3-3.61-2,0-2.44-1.3-2.3-3.06.15-2,1.34-2.44,3.05-2.43,3.49,0,7,0,10.47,0,1.78,0,2.76.73,2.86,2.63s-.67,3-2.51,2.86c-2.82-.13-2.72,1.74-2.72,3.62,0,9.46,0,18.93,0,28.39,0,2.19.2,3.94,3.12,3.89,2.07,0,2.21,1.56,2.08,3.19s-1.2,2.22-2.71,2.22c-3.65,0-7.31,0-11,0a2.3,2.3,0,0,1-2.63-2.33c-.12-1.4-.05-3,1.68-3.05,4.21-.14,3.55-3.07,3.57-5.67.07-9.76.07-9.76-9.67-9.75h-5c-10.41,0-12.37,2.47-10.19,12.73.31,1.47.91,2.5,2.54,2.51,2.25,0,2.83,1.3,2.63,3.27-.24,2.34-1.89,2.32-3.65,2.29-3.32-.05-6.65,0-10,0-1.51,0-2.6-.48-2.69-2.2-.09-1.55-.21-3.26,2-3.24,3.24,0,3.21-2.06,3.21-4.35,0-9.14,0-18.27,0-27.4,0-2.38-.14-4.32-3.3-4.22-1.82.06-2-1.32-2-2.78s.64-2.58,2.33-2.59c3.82,0,7.64,0,11.46,0a2.3,2.3,0,0,1,2.6,2.37c.11,1.41-.06,3.06-1.72,3-3.52,0-3.45,2.14-3.51,4.62-.24,10.54-.27,10.54,10.39,10.54Z"/><path class="cls-1" d="M339.56,97.49c0-3.82,0-7.64,0-11.46,0-2.61.09-5-2-7.34-1.72-1.92-1.38-4.72,2.17-4.75,5.47-.06,11-.57,16.38.87s9.54,4.47,10.51,10-.83,10.57-6.35,13.35c-2.55,1.3-2.6,3-1.43,5.23,1.38,2.65,2.7,5.33,3.88,8.07,1,2.31,2.18,4,5.12,3.61,2.13-.3,2.9.89,2.89,3s-1.16,2.37-2.85,2.57c-4.73.56-8.25-.26-9.92-5.61-1.33-4.23-3.68-8.14-5.59-12.19-.91-1.91-2.12-3.36-4.58-3-2.79.46-1.95,2.66-2,4.32-.13,2,.12,4-.06,6-.31,3.36.31,5.59,4.45,4.92,2.09-.35,3,.72,3,2.85,0,1.94-.87,2.69-2.71,2.68-3.65,0-7.31,0-11,0-2.73,0-3.5-2.37-2.37-3.64,4.52-5.1,1.68-11,2.48-16.52A21.28,21.28,0,0,0,339.56,97.49Zm6-10.72c0,7.69,0,7.69,4.57,7.66,6.88,0,10.81-2.78,10.78-7.52,0-4.5-4.38-7.19-11-7.4S346.45,84.34,345.55,86.77Z"/><path class="cls-1" d="M451.12,68.52c-4.33,0-8.65,0-13,0-1.3,0-2.83.3-3.25-1.49-.35-1.51-.4-3.42,1.29-3.82,2.66-.64,2.25-2.43,2.25-4.2q0-13.45,0-26.93c0-1.87.61-3.91-2.33-4.65-1.59-.39-1.52-2.39-1.15-3.89s1.6-1.45,2.8-1.45c8.82,0,17.64,0,26.46,0,2,0,3.42.63,3.16,2.78-.32,2.62,1.5,5.86-1.71,7.69-1.14.66-3.22.28-3.41-1.08-.65-4.8-4.1-3.71-7.06-3.76-1.33,0-2.67,0-4,0-8,.11-6.91-.72-6.92,6.9,0,8.49-1.15,7.61,7.73,7.69q4.74,0,9.48,0c1.88,0,3.26.44,3.37,2.67.13,2.53-1.39,3.09-3.48,3.09-4.32,0-8.65.1-13,0-2.81-.09-4.14.6-4.24,3.82C443.78,63,443.65,63,454.87,63c3.49,0,7.83,1.59,8.75-4.29.2-1.28,2.61-1.1,3.51-.3,2.49,2.21,1.05,5.3,1.15,8,.1,2.45-2.08,2.14-3.69,2.16C460.1,68.55,455.61,68.52,451.12,68.52Z"/><path class="cls-1" d="M507.06,120.66c-4.49,0-9,0-13.46,0-1.38,0-2.81,0-3.13-1.71-.29-1.5-.29-3.33,1.53-3.72,2.71-.58,2.21-2.5,2.22-4.23,0-9,0-17.93,0-26.9,0-1.83.22-3.62-2.12-4.48-1.61-.58-2-2.12-1.64-3.74.45-1.79,1.81-2,3.47-2q13,.07,25.93,0c2,0,3.47.78,3.23,2.77-.32,2.52,1.43,5.56-1.23,7.46a3,3,0,0,1-4-.76c-.84-1.21-.06-3.6-2.57-3.6-4.65,0-9.3,0-13.94.21-1.12,0-1.19,1.36-1.36,2.35-1.81,10.71-.65,12.09,10.16,12.09,2.16,0,4.32,0,6.48,0s4.11-.06,4.07,2.93c0,2.8-2,2.59-3.86,2.61-4.15,0-8.31.17-12.46,0-3.09-.16-4.39.67-4.47,4.08-.27,11.16-.4,11.23,10.72,11.11,3.41,0,7.81,1.79,8.73-4.21.24-1.51,3-1.2,3.9-.29,2.23,2.24.86,5.31,1,8,.11,2.55-2.16,2-3.68,2.07C516,120.72,511.55,120.66,507.06,120.66Z"/><path class="cls-1" d="M315.25,73.84h13c1.95,0,3.43.85,3.27,2.88-.2,2.47,1.51,5.51-1.44,7.3-1.29.79-3.55.73-3.87-.9-.89-4.51-4.16-3.32-7-3.43-1,0-2,0-3,0-8.05,0-8.05,0-8,8.1,0,6.56,0,6.56,6.43,6.57,3.66,0,7.33.05,11,0,2,0,3.15.53,3.19,2.77s-1.17,2.83-3.13,2.81c-4.49,0-9,.11-13.48-.06-2.76-.1-3.79.94-4,3.68-1,11.56-1,11.55,10.43,11.56,1.34,0,2.67,0,4,0,2.23.06,4.38.26,4.31-3.09,0-1.69,1.43-2,2.89-2,1.72,0,2.22,1,2.51,2.46,1.34,6.67.16,8.13-6.72,8.14-7.66,0-15.32,0-23,0-1.43,0-3.29.41-3.74-1.56-.35-1.57-.57-3.48,1.76-4,2.15-.47,1.73-2.16,1.74-3.57q0-14,0-27.93c0-1.65.22-3.33-2-4-1.79-.56-1.86-2.19-1.59-3.73.35-1.95,1.89-2,3.46-2,4.33,0,8.66,0,13,0Z"/><path class="cls-1" d="M435,176.05c-4.66,0-9.31,0-14,0s-6.26-2.56-3.54-6.58c2.41-3.56,5.28-6.81,8-10.18q8.34-10.51,16.72-21c.61-.77,1.57-1.52,1.24-2.55-.48-1.55-2-.86-3-.87-6.31-.06-12.63,0-18.94-.05-1.42,0-3.41.41-3.7-1.57s-1.09-4.18.72-5.59a3.42,3.42,0,0,1,4.58.35c2.11,2.09,4.72,1.16,7.11,1.22,5.81.14,11.63,0,17.45.06,1.61,0,3.55-.46,4.35,1.52a5.46,5.46,0,0,1-1.15,5.59q-5.69,7.23-11.41,14.43c-4.13,5.19-8.28,10.36-12.37,15.58-.77,1-2.17,1.94-1.25,3.42.71,1.14,2.1.69,3.2.7,5,.05,10-.17,15,.09,3.62.19,4.8-1.34,4.51-4.66a27.09,27.09,0,0,1,0-3.49c.06-1.76.91-2.81,2.78-2.77,1.7.05,2.92.72,2.94,2.63q0,5.47,0,11c0,2.52-1.71,2.85-3.74,2.83-5.16,0-10.31,0-15.46,0Z"/><path class="cls-1" d="M365.34,45.59c-.09,12.82-11,23.62-24,23.65a23.92,23.92,0,0,1-23.92-24.11c.17-13,11.05-23.83,23.89-23.75C354.36,21.46,365.43,32.6,365.34,45.59Zm-23.85-18.4a18.18,18.18,0,0,0-.58,36.36,18.18,18.18,0,1,0,.58-36.36Z"/><path class="cls-1" d="M399.28,122.34c-5.78-13.37-11.14-25.64-16.37-38-1.08-2.55-1.83-5-5.36-4.76-1.95.12-2.43-1.43-2.36-3.1s1-2.68,2.88-2.66c3.33,0,6.65,0,10,0,1.57,0,3.12.07,3.39,2.06.2,1.52.25,3.14-1.71,3.6-2.54.6-2,2.16-1.31,3.79,3.06,7.16,6.12,14.32,9.25,21.46.36.83.6,2.08,1.86,2s1.5-1.21,1.87-2.07c3.08-7.15,6.09-14.33,9.14-21.5.64-1.51.82-2.75-.92-3.78a3,3,0,0,1-1.11-4c.69-1.76,2.28-1.63,3.8-1.61q4.74,0,9.48,0c1.79,0,2.82.68,2.9,2.59s-.58,3.44-2.75,3.19c-3.66-.42-4.81,1.84-6,4.66-4.58,11-9.31,22-14,32.94C401.37,118.58,400.59,119.84,399.28,122.34Z"/><path class="cls-1" d="M280.7,121a22.08,22.08,0,0,1-11.29-3.37c-3.68-2.18-3.83-5.45-3.51-9.06.15-1.81,1.35-2.09,2.75-2.16a2.47,2.47,0,0,1,2.83,2.12,9.66,9.66,0,0,0,13.72,6.15c5.42-2.51,5.88-9.87.79-13.51-2.47-1.77-5.41-2.46-8.27-3.32-7.4-2.22-11-7.33-9.81-13.92s6.33-10.48,13.76-10.27a20.23,20.23,0,0,1,9,2.45c2.33,1.24,2.55,3.25,2.51,5.5a2.45,2.45,0,0,1-2.32,2.7c-2.3.34-2.76-1.32-3.89-2.86-1.94-2.63-5.17-2.46-8.19-1.77-3.23.73-4.62,3-4.92,6.08s1.4,5.08,4,6.2,5.66,1.89,8.4,3c7.06,2.94,10.36,8.86,8.94,15.78C293.94,117.17,288.22,121.19,280.7,121Z"/><path class="cls-2" d="M231.73,100V27.17c0-1.33,0-2.66.16-4a1.87,1.87,0,0,1,2-1.79,1.72,1.72,0,0,1,1.92,1.8c.12,1.32.15,2.66.15,4q0,72.82,0,145.63c0,1.17,0,2.33-.1,3.49a1.73,1.73,0,0,1-2,1.75,1.83,1.83,0,0,1-2-1.77c-.13-1.49-.14-3-.14-4.48Q231.72,135.89,231.73,100Z"/><path class="cls-1" d="M474.15,121c-10.45-.06-19.12-5.94-22.79-15A23.87,23.87,0,0,1,457,80.38c7.47-7,16.14-8.65,25.8-5.24,4.06,1.43,3.54,4.67,3.05,7.83-.19,1.23-1.33,1.29-2.35,1.33-1.21,0-2.55,0-2.82-1.44-.8-4.21-4.23-3.81-7-3.76-7.68.15-13.33,3.9-16.32,11s-2.06,13.72,3,19.48,11.89,7.16,19.06,5c2.74-.81,4.51-1.17,5.46,1.76,1,3.19-2.18,2.8-3.6,3.53C478.89,121.08,476.11,121,474.15,121Z"/><path class="cls-1" d="M437,120.64c-1.66,0-3.32,0-5,0s-2.93-.51-3-2.46c-.06-1.66.29-3.14,2.31-3.07,2.67.08,2.87-1.51,2.86-3.54q0-13.94,0-27.86c0-2.19-.24-3.89-3-4.13-1.79-.15-2.39-1.63-2.17-3.31s1.33-2.5,3.11-2.46c3.49.06,7,0,10.46,0,1.71,0,2.9.6,3,2.52.09,1.68-.36,3.16-2.25,3.22-2.81.08-3.11,1.7-3.09,4,.05,9.29,0,18.58,0,27.86,0,1.84-.26,3.82,2.6,3.7,2.21-.1,2.79,1.21,2.72,3.2-.08,2.17-1.56,2.27-3.1,2.32C440.65,120.68,438.82,120.64,437,120.64Z"/><path class="cls-1" d="M403.92,176.07c-1.83,0-3.66,0-5.49,0a2.4,2.4,0,0,1-2.64-2.37c-.19-1.49.17-2.89,1.82-3,3.42-.19,3.39-2.47,3.39-4.91q0-13.2,0-26.41c0-2.4.15-4.72-3.4-4.76-1.59,0-2-1.49-1.82-3a2.43,2.43,0,0,1,2.65-2.38c3.82,0,7.65,0,11.47.05,1.62,0,2.3,1,2.42,2.58s-.47,2.82-2.07,2.76c-3.29-.12-3.24,2-3.23,4.24,0,9.14,0,18.28,0,27.41,0,1.91-.45,4.24,2.7,4.27,1.83,0,2.7,1,2.6,2.86-.12,2.23-1.58,2.67-3.43,2.65C407.24,176.06,405.58,176.07,403.92,176.07Z"/><path class="cls-1" d="M51.7,152.38a7,7,0,0,1-2.18,3.79c-9.44,9.29-18.81,18.66-28.27,27.94-1.71,1.68-3.62,4.06-6.27,1.42s-.51-4.58,1.24-6.33q14.24-14.28,28.61-28.42c1.24-1.22,2.67-2.74,4.77-1.59A3.82,3.82,0,0,1,51.7,152.38Z"/><path class="cls-1" d="M111.68,39.75c9.68,0,9.68,0,9.68,9.89,0,10.23,0,10.23-9.92,10.23-10.41,0-10.41,0-10.41-10.21C101,39.75,101,39.75,111.68,39.75ZM111,53c2.19.09,3.57-.52,3.63-3s-.95-3.24-3.21-3.33-3.41.54-3.4,3C108,51.86,108.61,53.22,111,53Z"/></g></g></svg>