<svg xmlns="http://www.w3.org/2000/svg" viewBox="0 0 609.42 610.14"><g id="Layer_2" data-name="Layer 2"><g id="Layer_1-2" data-name="Layer 1"><path d="M146.93,469.34c0-6.49,0-6.49,6.5-6.49H367.48V442.39H94.33v9.41c0,11,0,11,11,11H125.5V484H94.22V589.14H0v20.64a11.83,11.83,0,0,0,1.72.31c38.17,0,76.34.06,114.5-.11,1.6,0,3.88-1.65,4.66-3.15q9-17.26,17.44-34.82c1.45-3,3.23-4,6.53-4q86.25.15,172.5,0c3.33,0,5,1,6.44,4,5.55,11.55,11.34,23,17.18,34.39.74,1.44,2.27,3.43,3.51,3.49,7.6.32,15.22.16,23,.16V483.79H146.93C146.93,478.6,146.92,474,146.93,469.34Z"/><path d="M275,105.08c15,.08,30,0,45,0,1.77,0,3.54.15,5.72.25V146.8c1.66-1.19,2.35-1.61,2.95-2.13,14.15-12.17,28.22-24.44,42.51-36.43a13.52,13.52,0,0,1,7.91-3c20.16-.25,40.33-.08,60.5-.16,14.08,0,22.59-8.09,22.78-22.15q.4-30.26,0-60.51C462.2,8.15,453.56,0,439.28,0h-164c-14.53,0-23,8.29-23,22.92q-.18,29.74,0,59.51C252.34,96.77,260.71,105,275,105.08ZM420.6,42.42h20.62V62.7H420.6Zm-104.88-.21H399V62.8H315.72Zm-42.16.13h20.17V62.86H273.56Z"/><path d="M115.9,378.41H264.26c-3.43-12.26-1.13-22.86,7.18-31.93,8.59-9.36,20-10.42,32.06-9.84-.77-9.35-6.79-15.54-17.16-18.45-12-3.38-24-6.65-36-10.29-3.27-1-5.15-.32-7.31,2.14-5.67,6.47-12.33,11.71-20.79,14.09-17.93,5-32.75-.37-45.09-13.74-1.83-2-3.21-3.81-6.64-2.76-12.56,3.82-25.27,7.16-37.87,10.86-11.38,3.34-17.13,11-17.23,22.77-.11,11.16,0,22.33,0,33.5A28,28,0,0,0,115.9,378.41Z"/><path d="M393.83,462.93c25.49-.17,51,.1,76.48-.24a40.74,40.74,0,0,0,16.39-3.32c12.59-5.91,17.89-16.83,17.9-30.43q.07-61.74,0-123.48v-2.75c-3.08,10.31-10.49,17.24-17.7,24.4Q455,358.84,423.4,390.83a10.93,10.93,0,0,0-2.82,6.86c-.28,12.83-.13,25.67-.15,38.5,0,1.78-.16,3.55-.27,5.82H388.85c0,5.62.24,10.75-.08,15.85C388.52,461.84,389.88,463,393.83,462.93Z"/><path d="M426,179.2c-5.65,9.72-5.78,20.3-5.82,31,.29,5.65.15,11.36.95,16.94,2.87,20.12,18.78,34.61,40.16,35.59a40.62,40.62,0,0,0,41.22-29.92c3.5-12.34,2.67-25.1,1.36-37.7a41.44,41.44,0,0,0-33.25-36.49C453,155.12,435.13,163.5,426,179.2Z"/><path d="M202.14,262.15c20.84,3.26,36.81-7.21,44.48-20.78,5.52-9.75,5.75-20.33,5.76-31.06-.27-5.32-.26-10.67-.88-15.95-2.08-17.69-16.08-32.47-33.6-35.77a41.65,41.65,0,0,0-44.59,21.34c-8.34,16-6.4,33.22-4.12,49.92C171.41,246.07,187,259.78,202.14,262.15Z"/><path d="M393.08,420.81a14.55,14.55,0,0,0,4-.13c.87-.26,2.11-1.32,2.14-2,.17-6.12.09-12.24.09-18.59H73.75v20.76H393.08Z"/><path d="M394.8,484h-5.52v20.71a19.36,19.36,0,0,0,2.35.31c33.82,0,67.64.15,101.45-.06,11.71-.08,22.66-3.26,32.16-10.52,15.38-11.76,21.54-27.65,21.45-46.62-.15-31.82,0-63.64,0-95.47V336.62c-5.62,0-10.61.27-15.55-.09-4.36-.3-5.67,1.07-5.64,5.55.21,28.65.11,57.31.1,86,0,12.45-2.69,24.1-10.31,34.24-11.12,14.8-26.27,21.55-44.48,21.65C445.45,484.08,420.12,484,394.8,484Z"/><path d="M475.45,284.93c-5.66-1.89-10,.46-13.85,4.35q-32.13,32.19-64.24,64.4a12.26,12.26,0,0,1-9.6,4c-29.82-.15-59.64-.1-89.46-.05a26.47,26.47,0,0,0-7.39.85c-4.71,1.41-6.91,5.09-7.07,9.81a9.86,9.86,0,0,0,7.76,9.76,30.14,30.14,0,0,0,6.9.74c16.83.06,33.66,0,50.48,0,10.83,0,21.66,0,32.49,0,8,0,16.81,1.89,23.69-.91,6.7-2.73,11.45-10.32,17-15.85q28-27.88,55.85-55.83c3.37-3.38,6.22-7.08,5.15-12.3C482.26,289.56,479.83,286.38,475.45,284.93Z"/><path d="M442.84,529.62c-.31-3.28-1.79-3.7-4.48-3.68-14.67.07-29.34.2-44-.07-4.37-.08-5.66,1.09-5.62,5.55.22,24.5.1,49,.12,73.5,0,1.61.16,3.22.24,4.94h61.38c0-1.23.08-2.21,0-3.17C447.91,581,445.27,555.32,442.84,529.62Z"/><path d="M490.87,589.13c-2.19-21.37-4.3-42-6.42-62.7h-20.8c2.81,28.09,5.56,55.68,8.32,83.32H609.42V589.13Z"/><path d="M305.13,589.16q-74.2-.17-148.41,0c-1.31,0-3.33.53-3.83,1.46-3.4,6.22-6.48,12.61-9.87,19.37h176c-3.33-6.7-6.19-12.85-9.47-18.76C308.94,590,306.66,589.16,305.13,589.16Z"/><path d="M189.51,281.23c-2.53,8.24.81,14.21,7.54,19,7.07,5,14.39,6.72,22.31,2.26,8.24-4.63,14.11-10.62,11-21.23-6.88.91-13.6,2.5-20.32,2.48S196.39,282.14,189.51,281.23Z"/></g></g></svg>