<svg xmlns="http://www.w3.org/2000/svg" viewBox="0 0 299.82 227.82"><g id="Layer_2" data-name="Layer 2"><g id="Layer_1-2" data-name="Layer 1"><path d="M291,179.88c-3.54.31-4.49-1-4.45-4.46.17-15.31.06-30.63.07-45.94,0-6.79-1.25-13.25-5.07-19-8-11.89-15.87-23.81-24-35.54-6.13-8.78-14.77-13.13-25.54-13.12H199.45c-9.36,0-11.25,1.93-11.25,11.5,0,33.79-.08,67.58.09,101.37,0,4.21-1.21,5.25-5.3,5.2-16.31-.24-32.63-.12-49-.06-1.33,0-2.94-.73-4.18.84,4.4,4.55,7.67,9.73,8.94,15.9.48,2.32,1.74,2.42,3.49,2.42,18.81,0,37.63,0,56.44,0,2.48,0,3.37-.92,4.06-3.21,4.46-14.78,16.33-24,30.67-23.92S259.42,181,264,196c.72,2.38,1.83,3.1,4.2,3.06,8-.12,16-.1,24,0a20.42,20.42,0,0,0,7.68-1.22v-16C297.3,179.26,294,179.62,291,179.88Zm-30-65c-1.14,2.22-3.12,2.14-5.13,2.14H233.88c-7.47,0-14.95-.11-22.42,0-3.93.08-5.87-1.3-5.79-5.46.14-7.81.12-15.62,0-23.42-.06-3.72,1.32-5.53,5.23-5.48,8.8.12,17.61.08,26.41,0a6,6,0,0,1,5.49,2.68c5.67,8.18,11.44,16.3,17.15,24.46C261,111.34,262,112.85,260.94,114.86Z"/><path d="M114.2,42.4C108,21.68,94.11,8.51,73.57,2.1c-.91-.29-3.72,1-2.61-2.1H69c-1.33,1.83-2.67,1.13-4,0H49c-.26.29-.51.82-.77.82C47.72.81,47.67.39,48,0H46c.81,2.94-1.77,1.78-2.78,2.09C22.81,8.31,9.25,21.45,2.51,41.69,1.7,44.12,2.15,47,0,49V68c1.63.82,1.38,2.58,1.71,3.9,6.07,24.28,24.58,41,49.37,44.32C92.23,121.78,126.16,82.2,114.2,42.4Zm-101,15.46C13.65,33,34.46,12.73,58.93,13.3a45.17,45.17,0,0,1,44.4,45.81C103,84,82.27,104.2,57.69,103.75S12.71,82.39,13.18,57.86Z"/><path d="M108.92,179.83C97.2,179.46,87.46,187,84.68,198.6a23.92,23.92,0,0,0,13.07,26.88c1.45.69,3.28.69,4.19,2.34h11c.83-1.55,2.58-1.27,3.87-1.81,10.24-4.23,16.6-15,14.86-25.53C129.71,188.73,120.32,180.2,108.92,179.83Zm-1,36a12,12,0,1,1,0-24,12,12,0,0,1,0,24Z"/><path d="M234.67,179.84a24,24,0,0,0-24.56,18.51c-2.62,11.59,3.28,22.86,14.39,27.63,1.16.5,2.68.45,3.36,1.84h10c.5-1.19,1.67-.83,2.56-1.12,11.63-3.81,18.26-14.58,16.5-26.84A23.85,23.85,0,0,0,234.67,179.84Zm-1.23,36a12,12,0,1,1,0-24,12,12,0,1,1,0,24Z"/><path d="M43.44,122.79c-4-.86-4.34.29-4.3,3.68.17,11.65,0,23.3.08,34.95,0,5.88.76,6.64,6.6,6.64q31.2,0,62.41,0c21,0,41.94,0,62.91,0,3.79,0,5.89-1,5.88-5.32-.1-37.77,0-75.54-.09-113.32,0-7-4.56-11.46-11.65-11.52-13.48-.1-27,0-40.44-.09-2.93,0-3.57.6-2.86,3.55C133.87,90.79,92.74,133.45,43.44,122.79Z"/><path d="M34.85,179.82c-3.2,0-5,1.21-5,4.69.09,3.32.08,6.65,0,10-.07,3.16,1.44,4.54,4.53,4.53,13.13,0,26.25,0,39.38,0,1.48,0,2.84.12,3.25-2.07,1.16-6.36,4.61-11.59,9.7-17.1C68.72,179.83,51.78,179.84,34.85,179.82Z"/><path d="M80.77,64.06c1.12-3.44-.16-6.23-4-7.32-3.51-1-7-2.07-10.55-2.88-2.84-.65-4.06-2-3.94-5.1.25-6.47.08-13,.07-19.44,0-3.8-1.45-6.69-5.67-6.66S51,25.4,51,29.27V42.73c0,4.49,0,9,0,13.46,0,3.45,1.51,5.74,4.81,6.66,5.9,1.65,11.83,3.2,17.76,4.75C77,68.5,79.72,67.32,80.77,64.06Z"/></g></g></svg>