<svg xmlns="http://www.w3.org/2000/svg" viewBox="0 0 503.59 378.5"><g id="Layer_2" data-name="Layer 2"><g id="Layer_1-2" data-name="Layer 1"><path d="M235,140.36c-10.18-64.45-74.16-109.2-138.32-96.6C6.74,61.43-30.65,167.42,28.84,237.15,46.18,257.47,58,279.67,61,306.43c1,9.44,6.67,13.92,16.22,14.08,7.31.13,14.64-.18,21.95.11,3.89.16,5-1.29,4.65-4.9-1.64-17.18-2.37-34.5-5-51.53-2.76-18-8.22-35.24-20.51-49.53-1-1.14-.24-3.78-.3-5.73,2,.35,5,0,6,1.17a80.38,80.38,0,0,1,9.72,13.79c10.88,20.5,14.54,42.92,16.45,65.68.85,10.07,1,20.19,1.53,30.62h13.59c0-2,0-3.6,0-5.25.57-22,2.08-43.81,7.81-65.14,3.82-14.22,9.1-27.77,18.86-39.13,1.83-2.13,4-4.08,6.73-1.7s.68,4.55-.77,6.89c-4.29,6.86-9.14,13.54-12.28,20.92-7.34,17.28-10,35.74-11.4,54.32-.74,9.57-.95,19.18-1.41,29,10.84,0,21,.51,31-.17,6.79-.46,11.19-6.18,12.12-13.28.47-3.62.86-7.26,1.55-10.83,4.21-21.79,14.77-40.28,29.11-57C231,210.43,240.9,177.68,235,140.36Zm-86,54.95c-2,2.23-4.43,1-6.21-1.34-3.21-4.22-6.54-8.36-10.11-12.91l-9.08,11.49c-3.93,5-5.48,5-9.53-.08-3-3.72-5.9-7.51-9.09-11.58-3.87,4.57-7.41,8.72-10.91,12.91-1.74,2.07-3.73,3.71-6.34,1.7s-1.44-4.34.33-6.43c4.29-5.08,8.5-10.23,12.85-15.26,3.48-4,5.21-3.91,8.66.4,3,3.75,6,7.56,9.29,11.81,3.29-4.15,6.34-8,9.43-11.87,3.36-4.19,5.4-4.27,8.62-.24,4,5.07,8.21,10.06,11.85,15.41C149.74,190.79,150,194.21,149,195.31Z"/><path d="M491.81,222.38c-3.42-1.14-5.08-2.61-6.22-6.32-1.93-6.31-.47-10.43,5.07-13.56,1.29-.73,2.31-1.91,3.53-2.77,3.33-2.34,4.07-5,1.38-8.38-1.74-2.21-3.16-4.67-4.72-7-8.64-13-6-12.68-20-5.2-3.17,1.7-5.17,1.36-8.37-.42-5.67-3.14-7.58-7-6-13.12a46.77,46.77,0,0,0,.67-4.93c.58-3.64-.92-5.68-4.54-6.36-4.4-.83-8.78-1.77-13.16-2.73-9.26-2-9.45-2.11-12.08,7-1.62,5.62-3.16,10.18-10.51,10.66-3.93.26-6.16-.07-8.64-3.22-9.28-11.79-7-11.37-19.68-3-14.4,9.47-12.88,6.27-5.54,20.62,1.57,3.07,1.17,4.92-.47,7.95-3.23,5.93-7.28,7.86-13.62,5.89-1.69-.52-3.64-.17-5.46-.39-3.07-.36-4.73,1.11-5.31,4-1.27,6.17-2.38,12.38-3.74,18.53-.73,3.33.66,5,3.64,5.94,3.65,1.13,7.33,2.16,10.88,3.54a4.82,4.82,0,0,1,2.71,2.82c2.38,10.54,2.32,10.55-6.18,17.39-.78.62-1.52,1.3-2.32,1.9-2.77,2.07-3.09,4.46-1.13,7.31,2.62,3.84,5.15,7.76,7.71,11.64,5.07,7.69,5.33,8.12,13.14,3.27,5.93-3.68,11-4.49,15.91.89,1.36,1.48,2.74,3.56,2.84,5.44.2,3.44-.55,6.93-.9,10.4-.07,4.09.52,5,4.49,5.85,6,1.34,12,2.57,18,3.83,3.12.66,5.17-.51,6.1-3.58,1.06-3.49,2-7,3.25-10.45a5.51,5.51,0,0,1,2.15-3c6.93-3.49,11.64-2.38,16.5,3.63.31.39.61.79.93,1.18,5.87,7.31,5.87,7.31,13.49,2.27,1.8-1.19,3.59-2.4,5.39-3.6,11.79-7.83,11.31-5.54,4.52-18.15-1.86-3.45-2.33-5.83,0-9.72,3.32-5.44,6.84-7.35,12.81-5.53,1.86.56,4,.35,5.94.52,2.93.25,4.77-.82,5.3-3.91.59-3.43,1.32-6.84,2.07-10.24C505.13,223.71,505,226.72,491.81,222.38ZM429,252.47a27.24,27.24,0,0,1-.29-54.48c15.51,0,27.9,12.2,27.77,27.3A27.41,27.41,0,0,1,429,252.47Z"/><path d="M255.23,210.8c-11.89-6.66-10.2-4.12-16.12,4.23-.1.13-.16.29-.25.43-7.37,10.75-7,9.61,2.37,17.23,3.43,2.79,2.15,10.8-2,11.93-13.57,3.67-11,3.36-9,16.23.13.82.48,1.59.64,2.41,1.61,7.95,2.33,8.39,10.22,7.33,2.55-.34,5.32-2,7.56,1.37s4,6.14,1.31,10.6c-4.86,8-4.48,8.25,3.44,13.48.41.28.81.58,1.23.85,9.95,6.51,9.95,6.51,18-2.17,3.08-3.33,10.71-1.82,11.94,2.52,3.61,12.81,3.26,11.16,14.87,8.76,10.17-2.1,13.15-.24,10.44-13.67-.85-4.18,2.31-5.2,4.76-6.46,1.57-.81,4.16-1.25,5.57-.5,11.72,6.25,10.15,5.47,16.86-4.47l.57-.81c6.34-9.54,6.69-8.77-2.15-15.72-2.07-1.63-3.7-3.12-2.68-6.17s1.09-6,5.37-7.14c10.2-2.73,10.12-3,7.89-13.12-.07-.33-.15-.65-.22-1-2.25-11.32-2.25-11.32-13.43-10.84a7.45,7.45,0,0,1-7-10.89c5.7-10.69,5.3-9.49-4.09-15.74-.28-.19-.58-.33-.85-.52-10.68-7.41-9.61-6.78-16.75,2.37-2.17,2.77-4.23,2.31-6.83,1.78s-4.74-1-5.75-4.29c-3.25-10.76-1.12-11.37-14.58-8.63-11.17,2.27-11.19,2.18-10.71,13.69C266.11,209.32,260,213.45,255.23,210.8Zm32.56,16.89A20.59,20.59,0,0,1,308.62,248c.14,11.11-9.22,20.64-20.48,20.85s-20.58-9.09-20.72-20.48A20.42,20.42,0,0,1,287.79,227.69Z"/><path d="M75.25,328.3c0,12-.06,23.8,0,35.56.06,8.37,5,14.26,13.34,14.41,20,.35,39.93.25,59.9,0,6.53-.09,12.23-4.88,12.45-10.84.47-12.91.15-25.85.15-39.12Z"/><path d="M346.13,79.71c-1,1.1-1,3.11-1.4,4.71l-9.92,35.71c-.73-.33-.94-.36-1-.47q-2.25-3.3-4.46-6.61C296.4,63.49,251.13,30.48,194.51,12.84,166.57,4.14,137.83.18,108.61,0A270.31,270.31,0,0,0,80.76,1.7c-1.56.16-2.87,2.79-4.3,4.27a54.33,54.33,0,0,0,4.75,3.42c.6.35,1.63,0,2.45-.08a279.38,279.38,0,0,1,73.5,3c51.47,8.84,96.75,30,134.18,67a237.66,237.66,0,0,1,35.6,45c-3.53-.92-6.4-1.62-9.25-2.41-10.07-2.78-20.12-5.62-30.21-8.36-2.77-.75-6-.65-6.17,2.8-.09,1.58,2.62,3.38,4.18,5,.4.41,1.23.43,1.87.61q22.53,6.21,45.08,12.42c5.32,1.46,6.69.73,8.19-4.69,3.1-11.19,6.13-22.39,9.19-33.59,1.31-4.79,2.92-9.54,3.77-14.41.28-1.56-1.45-3.48-2.26-5.23C349.56,77.45,347.46,78.23,346.13,79.71Z"/><path d="M345.06,327c-7.44-1.69-14.89-3.37-22.26-5.33-3-.79-5.58-.81-6.51,2.41-1.11,3.8,2,4.79,4.8,5.52,4.27,1.11,8.58,2.09,14,3.4-15.87,8-31.44,12.23-47.9,12.88-30.26,1.2-57.65-7.69-82.77-24.17-2.48-1.62-4.89-2.87-6.88.11s-.11,5,2.33,6.61c31.28,20.85,65.47,29.85,102.77,23.57,12.61-2.13,24.76-7,37.11-10.6-.93,4-2,9-3.29,13.88-.81,3-.69,5.52,2.65,6.36,3.52.89,4.58-1.86,5.24-4.57,1.84-7.58,3.42-15.23,5.5-22.73C351.12,329.73,349.13,328,345.06,327Z"/></g></g></svg>