<svg xmlns="http://www.w3.org/2000/svg" viewBox="0 0 500 500"><defs><style>.cls-1{fill:none;}</style></defs><g id="Layer_2" data-name="Layer 2"><g id="Layer_1-2" data-name="Layer 1"><path d="M356.89,225H267.16L407,11.33,147.63,270.13h88.85l-148,220.42s175.36-171.7,268.81-265Z"/><path d="M374.35,93.35l-25.7,37.84A154.46,154.46,0,0,1,205.18,397.81l-35.55,35.38A199.26,199.26,0,0,0,250,450c110.46,0,200-89.54,200-200A199.65,199.65,0,0,0,374.35,93.35Z"/><path d="M125.73,406.71l25.74-37.8A154.47,154.47,0,0,1,295.08,102.26l35.46-35.38A199.38,199.38,0,0,0,250,50C139.54,50,50,139.54,50,250A199.61,199.61,0,0,0,125.73,406.71Z"/><rect class="cls-1" width="500" height="500"/></g></g></svg>