<svg xmlns="http://www.w3.org/2000/svg" viewBox="0 0 817.03 1042.13"><g id="Layer_2" data-name="Layer 2"><g id="Layer_1-2" data-name="Layer 1"><path d="M626.85,470H443.56L762.85,0,199.42,562.18H380.89l-326.71,480S436.71,661.7,627.59,471.2Z"/><path d="M662.51,201.1,610,278.39A314.74,314.74,0,0,1,723.94,521.07c0,174.2-141.22,315.43-315.43,315.43A315.51,315.51,0,0,1,317,823l-72.62,72.26a407,407,0,0,0,164.16,34.33C634.13,929.58,817,746.68,817,521.07,817,391.45,756.66,275.94,662.51,201.1Z"/><path d="M154.69,841.17,207.25,764A314.8,314.8,0,0,1,93.08,521.07c0-174.21,141.23-315.43,315.43-315.43a315.6,315.6,0,0,1,92.08,13.66L573,147a407.08,407.08,0,0,0-164.51-34.48C182.9,112.55,0,295.45,0,521.07,0,650.76,60.44,766.33,154.69,841.17Z"/></g></g></svg>