<svg xmlns="http://www.w3.org/2000/svg" viewBox="0 0 500 500"><defs><style>.cls-1{fill:none;}</style></defs><g id="Layer_2" data-name="Layer 2"><g id="Layer_1-2" data-name="Layer 1"><path d="M143.27,108.22c75.45,66.18,84.38,218.83,84.38,218.83v80.74h46.78V327.05s.35-150.78,83.47-218.41l18,20.93,26.2-98.39L304.8,60.88l20,15.77C282.88,108.36,250,193.09,250,193.09S215.6,109,176.94,74.52l18-19.08L97.86,29.51l28.86,98.36Z"/><path d="M391.28,128.93,383,160.19l-26.37-30.6a157.73,157.73,0,0,0-14.7,17.13A154.18,154.18,0,0,1,289.1,419.63q-6.48,1.69-13.16,2.83a155.42,155.42,0,0,1-51.88,0q-5.61-1-11.07-2.3A154.17,154.17,0,0,1,157.87,146.9a164.74,164.74,0,0,0-13.57-17.13l-24,28.46-9.28-31.61A199.44,199.44,0,0,0,50,270.49c0,110.46,89.54,200,200,200s200-89.54,200-200A199.36,199.36,0,0,0,391.28,128.93Z"/><path d="M250,116.34a155.83,155.83,0,0,1,21.41,1.49c9-14.45,19.31-28.8,30.62-40.45l-.1-.08a201.4,201.4,0,0,0-102.26-.42c10.44,12.05,20.24,26.51,28.88,41A154.85,154.85,0,0,1,250,116.34Z"/><rect class="cls-1" width="500" height="500"/><rect class="cls-1" width="500" height="500"/></g></g></svg>