<svg id="Layer_1" data-name="Layer 1" xmlns="http://www.w3.org/2000/svg" viewBox="0 0 400 120"><defs><style>.cls-1{fill:none;}</style></defs><path d="M57.6,42.34c0-3.42,0-6.77,0-10.12a59.49,59.49,0,0,1,.19-7.44c1.07-7.89,5.33-13.52,12.75-16.45,7.18-2.83,14-1.7,20,3.06A19.5,19.5,0,0,1,98.2,27.14c.06,4.7,0,9.41,0,14.11v1c1.18.27,2.32.44,3.41.8a9.9,9.9,0,0,1,6.72,9.16q.07,13,0,26.07A10.06,10.06,0,0,1,98.21,88c-7.27,0-14.54,0-21.81,0q-9.34,0-18.71,0a10.06,10.06,0,0,1-10-7.91,11.09,11.09,0,0,1-.26-2.51q0-12.39,0-24.8A10.14,10.14,0,0,1,57.2,42.39Zm30.41,0c0-.14,0-.19,0-.24,0-4.36,0-8.71,0-13.07a25.57,25.57,0,0,0-.15-3.39,10.13,10.13,0,0,0-20.14,1.59c0,4.83,0,9.67,0,14.5,0,.2,0,.4,0,.61Zm-12.64,29c0,1.22,0,2.43,0,3.65a2.55,2.55,0,1,0,5.08,0c0-2.41,0-4.81,0-7.21a1.58,1.58,0,0,1,.7-1.45A4.45,4.45,0,0,0,83,62.33a5,5,0,0,0-4.32-4.67,5.13,5.13,0,0,0-5.39,3,4.88,4.88,0,0,0,1.65,5.92,1.43,1.43,0,0,1,.45,1C75.4,68.86,75.37,70.13,75.37,71.4Z"/><path d="M101.41,23.34a27,27,0,0,1,.31,3.76c0,3.26,0,6.56,0,9.76a36.44,36.44,0,0,1,4.75,4.79,37.21,37.21,0,0,1,5.16,8.26,37,37,0,1,1-57.58-13c0-1.55,0-3.13,0-4.68,0-.63,0-1.25,0-1.92a40.31,40.31,0,0,1,.24-6c0-.34.09-.67.15-1a48,48,0,1,0,46.95,0Z"/><path d="M84.54,28.76a20.18,20.18,0,0,0-.12-2.65,6.58,6.58,0,0,0-7.9-5.4,6.55,6.55,0,0,0-5.22,6.56c0,.5,0,1,0,1.49a37.49,37.49,0,0,1,13.25,0Z"/><rect class="cls-1" width="400" height="120"/></svg>