<svg xmlns="http://www.w3.org/2000/svg" viewBox="0 0 500 500"><defs><style>.cls-1{fill:none;}</style></defs><g id="Layer_2" data-name="Layer 2"><g id="Layer_1-2" data-name="Layer 1"><path d="M165.36,176.41c0-14.24-.08-28.2,0-42.16.08-10.34-.59-20.81.79-31,4.45-32.87,22.22-56.35,53.11-68.54,29.92-11.8,58.3-7.1,83.5,12.72,21,16.55,31.36,38.92,31.72,65.66.26,19.59.05,39.18.05,58.77v4c4.9,1.12,9.68,1.81,14.19,3.32,16.27,5.41,27.95,21.11,28,38.18.18,36.21.25,72.42,0,108.62-.17,22.5-19.21,40.68-42.2,40.77-30.29.11-60.58,0-90.87,0-26,0-52,.05-78,0-20.31-.05-36.87-13.16-41.52-33a46.3,46.3,0,0,1-1.08-10.45q-.12-51.66-.05-103.33c0-23.94,16.79-41.85,40.61-43.44C164.11,176.59,164.54,176.52,165.36,176.41Zm126.68.07a7.38,7.38,0,0,0,.21-1c0-18.15.06-36.29,0-54.44a111.19,111.19,0,0,0-.62-14.14c-3.12-24-27.57-40.64-51-34.88-19.82,4.88-32.82,21.18-32.92,41.53-.1,20.13,0,40.25,0,60.38,0,.83.14,1.67.22,2.54Zm-52.66,121c0,5.06,0,10.12,0,15.18,0,6.95,4.37,11.82,10.54,11.84s10.61-4.85,10.63-11.76c0-10,.1-20-.06-30a6.54,6.54,0,0,1,2.92-6,18.6,18.6,0,0,0,7.58-17c-.78-10.14-8-17.76-18-19.46-9.06-1.52-18.64,3.89-22.42,12.67s-1.2,18.08,6.87,24.66a6.12,6.12,0,0,1,1.88,4.07C239.51,286.94,239.38,292.22,239.38,297.51Z"/><path d="M347.9,97.24a112.65,112.65,0,0,1,1.29,15.66c.18,13.6.14,27.36.1,40.67a156.64,156.64,0,0,1,19.78,20,154.35,154.35,0,1,1-218.42-19.9c0-6.47,0-13,0-19.49,0-2.61,0-5.23,0-8-.09-8-.19-16.3,1-24.83.19-1.4.4-2.78.64-4.15A199.93,199.93,0,0,0,50,271.67c0,110.46,89.54,200,200,200s200-89.54,200-200A199.91,199.91,0,0,0,347.9,97.24Z"/><path d="M277.6,119.83a89,89,0,0,0-.49-11A27.39,27.39,0,0,0,244.17,86.3c-13.35,3.28-21.68,13.76-21.75,27.34,0,2.06,0,4.13,0,6.21a155.44,155.44,0,0,1,55.2,0Z"/><rect class="cls-1" width="500" height="500"/></g></g></svg>