<svg id="Layer_1" data-name="Layer 1" xmlns="http://www.w3.org/2000/svg" viewBox="0 0 400 120"><defs><style>.cls-1{fill:none;}</style></defs><path d="M52.3,26C70.41,41.86,72.55,78.49,72.55,78.49V97.87H83.78V78.49s.08-36.19,20-52.42l4.33,5,6.29-23.62L91.07,14.61l4.79,3.79C85.81,26,77.92,46.34,77.92,46.34S69.66,26.16,60.38,17.88l4.32-4.57L41.4,7.08l6.93,23.61Z"/><path d="M111.82,30.94l-2,7.5L103.5,31.1A37.33,37.33,0,0,0,100,35.21a37,37,0,0,1-12.67,65.5c-1,.27-2.09.5-3.16.68a37.52,37.52,0,0,1-12.45,0c-.9-.15-1.78-.34-2.66-.55A37,37,0,0,1,55.8,35.25a41.06,41.06,0,0,0-3.25-4.11L46.8,38l-2.23-7.59a48,48,0,1,0,67.25.55Z"/><path d="M77.92,27.92a37.77,37.77,0,0,1,5.13.36,58.8,58.8,0,0,1,7.35-9.71l0,0a48.45,48.45,0,0,0-24.54-.1,71.29,71.29,0,0,1,6.93,9.83A38,38,0,0,1,77.92,27.92Z"/><rect class="cls-1" width="400" height="120"/><rect class="cls-1" width="400" height="120"/><rect class="cls-1" width="400" height="120"/><rect class="cls-1" width="400" height="120"/></svg>